<svg xmlns="http://www.w3.org/2000/svg" xmlns:xlink="http://www.w3.org/1999/xlink" width="120" height="48" viewBox="0 0 120 48">
  <defs>
    <style>
      .cls-1 {
        fill: none;
      }

      .cls-2 {
        opacity: 0.4;
      }

      .cls-3 {
        clip-path: url(#clip-path);
      }

      .cls-4 {
        fill: #fff;
      }
    </style>
    <clipPath id="clip-path">
      <rect id="사각형_68" data-name="사각형 68" class="cls-1" width="120" height="48"/>
    </clipPath>
  </defs>
  <g id="그룹_76" data-name="그룹 76" class="cls-2">
    <g id="그룹_75" data-name="그룹 75" class="cls-3">
      <path id="패스_49" data-name="패스 49" class="cls-4" d="M103.948,22.888H96.667A5.236,5.236,0,0,0,91.3,26.67L88.414,37.465h1.121c1.554,0,2.693-.476,2.952-1.357.6-2.248,1.8-6.72,2.4-8.969A1.9,1.9,0,0,1,96.612,25.8l5.334,0c.927,0,2.063.149,1.552,1.862q-.433,1.526-2.73,1.528H98.38c-1.574,0-2.725.485-2.966,1.391L95,32.1h5.186c3.2,0,6.015-.677,7.054-4.551.876-3.277-.669-4.662-3.3-4.662" transform="translate(-49.548 -12.797)"/>
      <path id="패스_50" data-name="패스 50" class="cls-4" d="M141.725,21.95h-.742c-4.2,0-8.347,2.789-9.432,6.856L131.1,30.5c-1.09,4.064,1.572,6.854,5.772,6.854h.739c4.915,0,8.348-2.79,9.435-6.854l.452-1.693c1.088-4.067-1.572-6.856-5.771-6.856m1.841,7.454-.161.6a5.673,5.673,0,0,1-5.032,4.511h-.724c-1.91,0-3.4-1.586-2.616-4.511l.158-.6a5.668,5.668,0,0,1,5.032-4.511h.722c1.914,0,3.4,1.584,2.621,4.511" transform="translate(-73.331 -12.273)"/>
      <path id="패스_51" data-name="패스 51" class="cls-4" d="M25.473,18.545H21.9a5.231,5.231,0,0,0-3.319,1.068l-8.647,6.25c.694-2.585,1.371-5.128,1.957-7.318h-2.5c-1.549,0-2.683.47-2.95,1.346L2.392,35.037H4.883c1.577,0,2.727-.485,2.971-1.391v.009c.5-1.877,1.049-3.93,1.6-6l5,6.269c.487.611,1.024,1.116,2.792,1.116h3.82l-6.519-8.11Z" transform="translate(-1.34 -10.369)"/>
      <path id="패스_52" data-name="패스 52" class="cls-4" d="M63.525,28.585l-5.048,0c-1.371,0-2.009-.273-1.659-1.45.289-1.014,1.153-1.34,2.681-1.34h6.375c1.574,0,2.722-.486,2.966-1.389l.408-1.523H60.077c-3.2,0-6.034.738-7,4.367-.675,2.518.554,4.257,3.4,4.245H61.52c1.408,0,2,.3,1.638,1.526q-.431,1.523-2.73,1.525H53.976c-1.576,0-2.723.486-2.965,1.388L50.6,37.464H59.85c3.458,0,6.056-.825,7.052-4.551.786-2.942-.881-4.328-3.377-4.328" transform="translate(-28.358 -12.797)"/>
      <path id="패스_53" data-name="패스 53" class="cls-4" d="M180.228,12.01c-.287-.164-.415-.168-.65.084-.931,1.009-2.59,2.907-3.428,3.86a10.693,10.693,0,0,1,1.488,7.636c-.067.227.072.384.278.176l0,0a68.064,68.064,0,0,1,6.609-6.127,10.664,10.664,0,0,0-4.294-5.634" transform="translate(-98.715 -6.65)"/>
      <path id="패스_54" data-name="패스 54" class="cls-4" d="M155.419,4.8c-.115.065-.115.232,0,.232A10.207,10.207,0,0,1,162.1,6.871a54.6,54.6,0,0,1,6.683-4.805,15,15,0,0,1,2.469-.306c-.653.7-1.568,1.722-2.092,2.3-.134.149,0,.278.156.217A53.676,53.676,0,0,1,183.887.966c-10.554-2.209-20.772-.5-28.469,3.838" transform="translate(-87.049 0)"/>
      <path id="패스_55" data-name="패스 55" class="cls-4" d="M207.615,3.013a43.287,43.287,0,0,0-12.42,3.768c-.392.205-.316.348-.02.481a8.618,8.618,0,0,1,3.457,2.843,67.367,67.367,0,0,1,12.913-5.992c-1.3-.426-2.666-.8-3.929-1.1" transform="translate(-109.238 -1.685)"/>
      <rect id="사각형_61" data-name="사각형 61" class="cls-4" width="1.076" height="8.266" transform="translate(94.243 16.402)"/>
      <path id="패스_56" data-name="패스 56" class="cls-4" d="M204.98,39.566h-.991a5.232,5.232,0,0,0,.185-1.334v-.3a.569.569,0,0,0-.567-.5h-3.07v.8h2.317a.123.123,0,0,1,.119.112,5.641,5.641,0,0,1-.16,1.222H200.44v.8h2.082a5.387,5.387,0,0,1-2.151,2.466l.572.578a6.893,6.893,0,0,0,2.759-3.045h1.277v5.1h1.06V37.2h-1.06Z" transform="translate(-112.29 -20.8)"/>
      <path id="패스_57" data-name="패스 57" class="cls-4" d="M221.13,38.121a2.417,2.417,0,1,0,2.331,2.417,2.221,2.221,0,0,0-2.331-2.417m0,4.007c-.695,0-1.142-.623-1.142-1.59s.447-1.59,1.142-1.59,1.14.614,1.14,1.59-.452,1.59-1.14,1.59" transform="translate(-122.615 -21.314)"/>
      <rect id="사각형_62" data-name="사각형 62" class="cls-4" width="1.155" height="8.266" transform="translate(101.872 16.402)"/>
      <rect id="사각형_63" data-name="사각형 63" class="cls-4" width="7.698" height="0.796" transform="translate(103.913 22.284)"/>
      <path id="패스_58" data-name="패스 58" class="cls-4" d="M240.9,39.822a4.915,4.915,0,0,0,2.962,1.994l.364-.781a3.43,3.43,0,0,1-2.722-3.217v-.245h-1.2v.245a3.431,3.431,0,0,1-2.723,3.217l.363.781a4.9,4.9,0,0,0,2.96-1.994" transform="translate(-133.141 -21.008)"/>
      <path id="패스_59" data-name="패스 59" class="cls-4" d="M259.409,43.3v-1.45H261.7v-.8h-1.019a14.247,14.247,0,0,0,.164-2.585v-.079h.932v-.8h-5.933v.8h1v.079a14.281,14.281,0,0,0,.164,2.585h-1.091v.8h2.292V43.3h-3.252v.8h7.7v-.8Zm-1.272-2.249a16.651,16.651,0,0,1-.129-2.364v-.3h1.683v.3a16.246,16.246,0,0,1-.132,2.364Z" transform="translate(-142.883 -21.017)"/>
      <rect id="사각형_64" data-name="사각형 64" class="cls-4" width="2.012" height="15.433" transform="translate(42.121 32.104)"/>
      <path id="패스_60" data-name="패스 60" class="cls-4" d="M86.291,78.019h-2.3v1.49h2.3v8.742H88.3V72.818H86.291Z" transform="translate(-47.067 -40.714)"/>
      <path id="패스_61" data-name="패스 61" class="cls-4" d="M73.988,76.359v-.72h2.534v-1.49H73.988V72.358H71.866v1.791H69.33v1.49h2.536v.72A7.9,7.9,0,0,1,68.9,82.87l1.21,1.007a7.661,7.661,0,0,0,2.81-3.558,7.791,7.791,0,0,0,2.814,3.558l1.209-1.007a7.9,7.9,0,0,1-2.959-6.512" transform="translate(-38.615 -40.457)"/>
      <path id="패스_62" data-name="패스 62" class="cls-4" d="M177.147,76.424c0,1.8,1.606,2.947,4,2.947s4-1.148,4-2.947a2.559,2.559,0,0,0-.569-1.644h2.208V73.288H182.2v-1.37H180.06v1.37h-4.585V74.78h2.244a2.554,2.554,0,0,0-.571,1.644m4-1.452c1.054,0,1.8.566,1.8,1.452s-.748,1.443-1.8,1.443-1.8-.562-1.8-1.443.749-1.452,1.8-1.452" transform="translate(-98.337 -40.211)"/>
      <rect id="사각형_65" data-name="사각형 65" class="cls-4" width="14.355" height="1.491" transform="translate(75.616 39.707)"/>
      <path id="패스_63" data-name="패스 63" class="cls-4" d="M182.728,94.789c-2.686,0-4.432,1.209-4.432,3.1s1.745,3.1,4.432,3.1,4.432-1.209,4.432-3.1-1.744-3.1-4.432-3.1m0,4.721c-1.324,0-2.185-.629-2.185-1.618s.86-1.616,2.185-1.616,2.186.631,2.186,1.616-.862,1.618-2.186,1.618" transform="translate(-99.918 -52.998)"/>
      <path id="패스_64" data-name="패스 64" class="cls-4" d="M115.126,78.149c2.6,0,4.276-1.343,4.276-3.448s-1.679-3.449-4.276-3.449-4.27,1.342-4.27,3.449,1.678,3.448,4.27,3.448m0-5.359a1.916,1.916,0,1,1-2.064,1.912,1.868,1.868,0,0,1,2.064-1.912" transform="translate(-62.124 -39.838)"/>
      <path id="패스_65" data-name="패스 65" class="cls-4" d="M104.247,90.142h3.646v1.632H106.04v1.491h8.093a.216.216,0,0,1,.216.217v3.766h2.142V92.808a1.034,1.034,0,0,0-1.03-1.034h-.5V90.142H118.6V88.656H104.247Zm5.789,0h2.779v1.632h-2.779Z" transform="translate(-58.421 -49.569)"/>
      <rect id="사각형_66" data-name="사각형 66" class="cls-4" width="2.158" height="10.598" transform="translate(71.711 32.104)"/>
      <path id="패스_66" data-name="패스 66" class="cls-4" d="M143.749,79.485a7.539,7.539,0,0,0,3.812,3.134l.809-1.368c-3.32-1.263-3.515-4.907-3.525-5.53h2.88V74.233h-7.952v1.489h2.877c-.007.624-.2,4.267-3.525,5.53l.811,1.368a7.556,7.556,0,0,0,3.814-3.134" transform="translate(-77.966 -41.505)"/>
      <path id="패스_67" data-name="패스 67" class="cls-4" d="M148.756,98.9V95.358H146.6v4.213a1.032,1.032,0,0,0,1.03,1.036h8.664V99.115h-7.322a.215.215,0,0,1-.212-.215" transform="translate(-82.153 -53.317)"/>
      <path id="패스_68" data-name="패스 68" class="cls-4" d="M216.422,93.41c-2.685,0-4.426,1.327-4.426,3.408s1.741,3.409,4.426,3.409,4.421-1.327,4.421-3.409-1.739-3.408-4.421-3.408m0,5.336c-1.369,0-2.259-.751-2.259-1.928s.889-1.926,2.259-1.926,2.256.751,2.256,1.926-.888,1.928-2.256,1.928" transform="translate(-118.804 -52.227)"/>
      <path id="패스_69" data-name="패스 69" class="cls-4" d="M218.022,75.955v-1a1.033,1.033,0,0,0-1.03-1.034h-9.117v1.491h7.772a.214.214,0,0,1,.211.216v.647a11.907,11.907,0,0,1-.659,3.941H212.67V77.355h-2.143V80.22h-4.784v1.488H220.1V80.22h-2.8a12.161,12.161,0,0,0,.724-4.265" transform="translate(-115.3 -41.333)"/>
      <path id="패스_70" data-name="패스 70" class="cls-4" d="M252.8,72.818H250.64V78.3c-1.347.986-3.863,1.3-6.366,1.3h-.541a.213.213,0,0,1-.215-.214V75.128a.214.214,0,0,1,.215-.216H248.2V73.425H242.39a1.031,1.031,0,0,0-1.033,1.033v5.6a1.03,1.03,0,0,0,1.033,1.033h1.14c1.5,0,5.3.065,7.11-1.135v3.462H252.8V77.989h2.456V76.5H252.8Z" transform="translate(-135.258 -40.714)"/>
      <path id="패스_71" data-name="패스 71" class="cls-4" d="M248.422,98.732V95.057h-2.134V99.4a1.033,1.033,0,0,0,1.031,1.036h8.638V98.947h-7.32a.216.216,0,0,1-.216-.215" transform="translate(-138.021 -53.148)"/>
      <rect id="사각형_67" data-name="사각형 67" class="cls-4" width="2.154" height="10.595" transform="translate(26.148 32.101)"/>
      <path id="패스_72" data-name="패스 72" class="cls-4" d="M12.25,74.6v-.675a1.033,1.033,0,0,0-1.033-1.034H2.066v1.489H9.881a.215.215,0,0,1,.215.215v.524a10.754,10.754,0,0,1-.565,3.429H0v1.488H6.091v2.422H2.147v1.491h7.71a.215.215,0,0,1,.212.218v4.212h2.155V83.5a1.036,1.036,0,0,0-1.031-1.036H8.244V80.039H14.35V78.551H11.619A12.5,12.5,0,0,0,12.25,74.6" transform="translate(0 -40.756)"/>
      <path id="패스_73" data-name="패스 73" class="cls-4" d="M44.574,98.723V95.05H42.422v4.343a1.033,1.033,0,0,0,1.033,1.035h8.89V98.937H44.791a.213.213,0,0,1-.216-.214" transform="translate(-23.774 -53.144)"/>
      <path id="패스_74" data-name="패스 74" class="cls-4" d="M43.918,79.991V74.339a1.03,1.03,0,0,0-1.031-1.031H37.209a1.031,1.031,0,0,0-1.03,1.031v5.653a1.033,1.033,0,0,0,1.03,1.034h5.677a1.032,1.032,0,0,0,1.031-1.034m-2.151-.669a.213.213,0,0,1-.213.212H38.545a.216.216,0,0,1-.216-.212v-4.31a.218.218,0,0,1,.216-.217h3.009a.217.217,0,0,1,.213.217Z" transform="translate(-20.275 -40.988)"/>
    </g>
  </g>
</svg>
