<svg id="그룹_27" data-name="그룹 27" xmlns="http://www.w3.org/2000/svg" xmlns:xlink="http://www.w3.org/1999/xlink" width="24" height="26" viewBox="0 0 24 26">
  <defs>
    <style>
      .cls-1 {
        fill: #ccebfc;
      }

      .cls-2 {
        clip-path: url(#clip-path);
      }
    </style>
    <clipPath id="clip-path">
      <rect id="사각형_30" data-name="사각형 30" class="cls-1" width="24" height="26"/>
    </clipPath>
  </defs>
  <g id="그룹_26" data-name="그룹 26" class="cls-2">
    <path id="패스_7" data-name="패스 7" class="cls-1" d="M23.434,19.76a7.616,7.616,0,0,1-3.455-6.24V10.4a7.874,7.874,0,0,0-6.644-7.67V0H10.678V2.73A7.874,7.874,0,0,0,4.034,10.4v3.12A7.616,7.616,0,0,1,.579,19.76a1.221,1.221,0,0,0-.532,1.43,1.6,1.6,0,0,0,1.329.91H6.824A5.282,5.282,0,0,0,12.006,26a5.4,5.4,0,0,0,5.182-3.9h5.448a1.6,1.6,0,0,0,1.329-.91A1.427,1.427,0,0,0,23.434,19.76ZM12.006,23.4a2.581,2.581,0,0,1-2.259-1.3H14.4a2.985,2.985,0,0,1-2.392,1.3M4.7,19.5a9.561,9.561,0,0,0,1.993-5.98V10.4a5.316,5.316,0,0,1,10.63,0v3.12a9.561,9.561,0,0,0,1.993,5.98Z" transform="translate(0)"/>
  </g>
</svg>
