<svg id="그룹_42" data-name="그룹 42" xmlns="http://www.w3.org/2000/svg" xmlns:xlink="http://www.w3.org/1999/xlink" width="57" height="64" viewBox="0 0 57 64">
  <defs>
    <style>
      .cls-1 {
        fill: none;
      }

      .cls-2 {
        clip-path: url(#clip-path);
      }

      .cls-3 {
        fill: #abcdff;
      }

      .cls-4 {
        fill: #f99653;
      }

      .cls-5 {
        fill: #ffd551;
      }

      .cls-6 {
        fill: #edbf9a;
      }

      .cls-7 {
        fill: #ffd9b6;
      }

      .cls-8 {
        fill: #e08344;
      }

      .cls-9 {
        fill: #3f3f3f;
      }

      .cls-10 {
        fill: #fff;
      }

      .cls-11 {
        fill: #80b2f9;
      }

      .cls-12 {
        fill: #448ffc;
      }
    </style>
    <clipPath id="clip-path">
      <rect id="사각형_40" data-name="사각형 40" class="cls-1" width="57" height="64"/>
    </clipPath>
  </defs>
  <g id="그룹_41" data-name="그룹 41" class="cls-2">
    <path id="패스_12" data-name="패스 12" class="cls-3" d="M244.636,86.656h-1.863v6.157h1.863a1.793,1.793,0,0,0,1.932-1.591V88.178a1.748,1.748,0,0,0-1.932-1.522" transform="translate(-203.508 -72.605)"/>
    <path id="패스_13" data-name="패스 13" class="cls-3" d="M85.76,88.177v3.044a1.8,1.8,0,0,0,1.932,1.591h1.863V86.655H87.692a1.748,1.748,0,0,0-1.932,1.522" transform="translate(-71.89 -72.604)"/>
    <path id="패스_14" data-name="패스 14" class="cls-4" d="M73.1,214.37h-49.2V194.515a7.592,7.592,0,0,1,5.658-7.057L43.7,183.169a15.967,15.967,0,0,1,9.523,0l14.147,4.289a7.592,7.592,0,0,1,5.658,7.057Z" transform="translate(-20.029 -152.86)"/>
    <rect id="사각형_38" data-name="사각형 38" class="cls-5" width="8.212" height="1.799" transform="translate(31.743 44.422)"/>
    <rect id="사각형_39" data-name="사각형 39" class="cls-6" width="10.42" height="14.528" transform="translate(23.255 21.661)"/>
    <path id="패스_15" data-name="패스 15" class="cls-7" d="M126.5,22.724c0,8.025-5.314,16.189-11.8,16.189s-11.869-8.233-11.869-16.189S108.14,9.856,114.7,9.856,126.5,14.7,126.5,22.724Z" transform="translate(-86.195 -8.258)"/>
    <path id="패스_16" data-name="패스 16" class="cls-8" d="M88.5,290.6h-.345a.692.692,0,0,0-.69.692v13.629h1.794v-13.56A.877.877,0,0,0,88.5,290.6Z" transform="translate(-73.32 -243.482)"/>
    <path id="패스_17" data-name="패스 17" class="cls-8" d="M255.328,290.6h-.345a.692.692,0,0,0-.69.692v13.629h1.794v-13.56A.816.816,0,0,0,255.328,290.6Z" transform="translate(-213.165 -243.482)"/>
    <path id="패스_18" data-name="패스 18" class="cls-8" d="M121.66,189.747l-5.176,4.7-5.245-4.7-.759-.692-5.521,1.66,8.212,7.472,3.312-3.6,3.243,3.6,8.281-7.472-5.59-1.66Z" transform="translate(-87.984 -158.401)"/>
    <path id="패스_19" data-name="패스 19" class="cls-3" d="M189.132,122.172c-.828,0-1.035,0-2.07-.069h-1.035v-.83h1.035c4.762.138,6.349.208,7.8-1.038,1.518-1.245,1.242-4.428,1.242-4.5l.828-.069c0,.138.345,3.667-1.518,5.189C194.032,122.034,192.238,122.172,189.132,122.172Z" transform="translate(-155.94 -96.914)"/>
    <path id="패스_20" data-name="패스 20" class="cls-4" d="M179.374,148.522h-2.829a.767.767,0,0,1-.759-.761v-1.038a.767.767,0,0,1,.759-.761h2.829a.767.767,0,0,1,.759.761v1.038a.721.721,0,0,1-.759.761" transform="translate(-147.355 -122.295)"/>
    <path id="패스_21" data-name="패스 21" class="cls-9" d="M122.2,6.856c0-3.667-1.863-3.805-1.863-3.805l-2.9-.346a1.175,1.175,0,0,1-1.035-1.038c-.345-1.868-1.725-1.66-1.725-1.66s-9.592,0-12.628,1.176c-3.519,1.384-4.347,3.805-4.347,5.811,0,4.082,1.035,11.415,1.656,13.075a.4.4,0,0,0,.759-.138V14.465a.619.619,0,0,1,.621-.623H114.13a.619.619,0,0,0,.621-.623V11.906a.619.619,0,0,1,.621-.623.564.564,0,0,1,.552.623V13.22a.619.619,0,0,0,.621.623H120a.619.619,0,0,1,.621.623v5.258c0,.415.759.415.9.069a19.368,19.368,0,0,0,.759-5.258C122.273,13.774,122.2,9,122.2,6.856Z" transform="translate(-81.903 0)"/>
    <path id="패스_22" data-name="패스 22" class="cls-10" d="M47.724,236.842H85.609a2.2,2.2,0,0,1,2.208,2.421l-1.38,21.446H46.965l-1.38-21.446A2.146,2.146,0,0,1,47.724,236.842Z" transform="translate(-38.201 -198.439)"/>
    <path id="패스_23" data-name="패스 23" class="cls-11" d="M137.321,307.01h1.656v-3.736h-1.656a6.089,6.089,0,0,0-.828-1.937l1.173-1.176-2.622-2.7-1.173,1.176a9.571,9.571,0,0,0-1.932-.83v-1.66h-3.726v1.66a6.8,6.8,0,0,0-1.932.83l-1.173-1.176-2.622,2.629,1.173,1.176a9.63,9.63,0,0,0-.828,1.937h-1.656v3.736h1.656a7.535,7.535,0,0,0,.69,1.729c0,.069.069.138.138.208l-1.173,1.176,2,2.006h1.242l.552-.553a8.243,8.243,0,0,0,1.1.553h5.383a5.5,5.5,0,0,0,1.1-.553l.552.553h1.242l2.07-2.006-1.173-1.176c.069-.069.069-.138.138-.277A6.352,6.352,0,0,0,137.321,307.01Zm-6.418,2.145a4.988,4.988,0,0,1-1.656,0,4.62,4.62,0,0,1-1.242-.484,4.149,4.149,0,1,1,6.211-3.6,4.216,4.216,0,0,1-2.07,3.6,3.878,3.878,0,0,1-1.242.484" transform="translate(-101.575 -248.13)"/>
    <path id="패스_24" data-name="패스 24" class="cls-12" d="M57,375.1a1.991,1.991,0,0,1-.483,1.245,1.563,1.563,0,0,1-1.242.484H1.725A1.711,1.711,0,0,1,0,375.1a1.991,1.991,0,0,1,.483-1.245,1.563,1.563,0,0,1,1.242-.484h53.55A1.711,1.711,0,0,1,57,375.1" transform="translate(0 -312.834)"/>
  </g>
</svg>
