<svg id="그룹_44" data-name="그룹 44" xmlns="http://www.w3.org/2000/svg" xmlns:xlink="http://www.w3.org/1999/xlink" width="52" height="52" viewBox="0 0 52 52">
  <defs>
    <style>
      .cls-1 {
        fill: none;
      }

      .cls-2 {
        clip-path: url(#clip-path);
      }

      .cls-3 {
        fill: #b9e8ff;
      }

      .cls-4 {
        fill: #2969c6;
      }
    </style>
    <clipPath id="clip-path">
      <rect id="사각형_41" data-name="사각형 41" class="cls-1" width="52" height="52"/>
    </clipPath>
  </defs>
  <g id="그룹_43" data-name="그룹 43" class="cls-2">
    <path id="패스_25" data-name="패스 25" class="cls-3" d="M35.521,78.79l-1.936,1.936c-2.965,2.965-5.931,4.9-8.351,2.481L11.437,69.35c-2.481-2.481-.545-5.386,2.481-8.351l1.936-1.936-9.5-9.44L3.63,52.345a12.272,12.272,0,0,0,0,17.428l21.18,21.18a12.272,12.272,0,0,0,17.428,0l2.723-2.723Z" transform="translate(0 -42.584)"/>
    <path id="패스_26" data-name="패스 26" class="cls-4" d="M27.589,45.307,17.543,35.262a2.374,2.374,0,0,0-3.328,0l-1.694,1.694a2.374,2.374,0,0,0,0,3.328L22.566,50.33a2.374,2.374,0,0,0,3.328,0l1.694-1.694a2.374,2.374,0,0,0,0-3.328" transform="translate(-10.161 -29.676)"/>
    <path id="패스_27" data-name="패스 27" class="cls-4" d="M231.962,249.681l-10.045-10.045a2.374,2.374,0,0,0-3.328,0l-1.694,1.694a2.374,2.374,0,0,0,0,3.328L226.939,254.7a2.374,2.374,0,0,0,3.328,0l1.694-1.694a2.374,2.374,0,0,0,0-3.328" transform="translate(-185.547 -205.064)"/>
    <path id="패스_28" data-name="패스 28" class="cls-3" d="M171.255,103.066a1.724,1.724,0,0,1-.484-.847A1.743,1.743,0,0,1,172.1,100.1a9.95,9.95,0,0,1,11.921,11.921,1.769,1.769,0,0,1-3.449-.787,6.427,6.427,0,0,0-1.694-5.991,6.279,6.279,0,0,0-5.991-1.694A1.794,1.794,0,0,1,171.255,103.066Z" transform="translate(-146.505 -85.681)"/>
    <path id="패스_29" data-name="패스 29" class="cls-3" d="M160.588,53.306a1.725,1.725,0,0,1-.484-.847,1.743,1.743,0,0,1,1.331-2.118,16.995,16.995,0,0,1,20.393,20.393,1.769,1.769,0,1,1-3.449-.787,13.463,13.463,0,0,0-3.57-12.526,13.312,13.312,0,0,0-12.526-3.57A2.072,2.072,0,0,1,160.588,53.306Z" transform="translate(-137.351 -42.819)"/>
    <path id="패스_30" data-name="패스 30" class="cls-3" d="M149.921,3.588a1.724,1.724,0,0,1-.484-.847A1.743,1.743,0,0,1,150.768.623a24.011,24.011,0,0,1,28.8,28.8,1.769,1.769,0,0,1-3.449-.787,20.455,20.455,0,0,0-5.446-19.062,20.24,20.24,0,0,0-19.062-5.446A2.072,2.072,0,0,1,149.921,3.588Z" transform="translate(-128.196 0)"/>
  </g>
</svg>
