<svg id="그룹_38" data-name="그룹 38" xmlns="http://www.w3.org/2000/svg" xmlns:xlink="http://www.w3.org/1999/xlink" width="32" height="40" viewBox="0 0 32 40">
  <defs>
    <style>
      .cls-1 {
        fill: #046;
      }

      .cls-2 {
        clip-path: url(#clip-path);
      }
    </style>
    <clipPath id="clip-path">
      <rect id="사각형_37" data-name="사각형 37" class="cls-1" width="32" height="40"/>
    </clipPath>
  </defs>
  <g id="그룹_37" data-name="그룹 37" class="cls-2">
    <path id="패스_11" data-name="패스 11" class="cls-1" d="M0,16A16.047,16.047,0,0,0,16,32a8.2,8.2,0,0,0,2.2-.2L28,40V26.6A15.882,15.882,0,0,0,32,16,16,16,0,1,0,0,16M16,28A12,12,0,1,1,28,16a12.518,12.518,0,0,1-3.2,8.4l-.6.6v6.6l-4.8-4-1,.2A9.737,9.737,0,0,1,16,28Z"/>
    <rect id="사각형_35" data-name="사각형 35" class="cls-1" width="4" height="10" transform="translate(14 8)"/>
    <rect id="사각형_36" data-name="사각형 36" class="cls-1" width="4" height="4" transform="translate(14 20)"/>
  </g>
</svg>
